[b]General[/b]
[color=green]Complete name                  : Jism 2 - Yeh Kasoor Ft.Sunny Leone 720pHD{ECS}.mp4
Format                         : MPEG-4
Format profile                 : Base Media
Codec ID                       : isom
File size                      : 30.1 MiB
Duration                       : 2mn 2s
Overall bit rate               : 2 057 Kbps
Encoded date                   : UTC 2012-07-14 18:13:16
Tagged date                    : UTC 2012-07-14 18:13:16

Video
ID                             : 1
Format                         : AVC
Format/Info                    : Advanced Video Codec
Format profile                 : High@L3.1
Format settings, CABAC         : Yes
Format settings, ReFrames      : 5 frames
Codec ID                       : avc1
Codec ID/Info                  : Advanced Video Coding
Duration                       : 2mn 2s
Bit rate                       : 1 665 Kbps
Maximum bit rate               : 3 650 Kbps
Width                          : 1 280 pixels
Height                         : 544 pixels
Display aspect ratio           : 2.35:1
Frame rate mode                : Constant
Frame rate                     : 25.000 fps
Color space                    : YUV
Chroma subsampling             : 4:2:0
Bit depth                      : 8 bits
Scan type                      : Progressive
Bits/(Pixel*Frame)             : 0.096
Stream size                    : 24.4 MiB (81%)
Title                          : @
Writing library                : x264 core 125 r2200 999b753

Encoded date                   : UTC 2012-07-14 18:13:16
Tagged date                    : UTC 2012-07-14 18:13:17

Audio
ID                             : 2
Format                         : AC-3
Format/Info                    : Audio Coding 3
Mode extension                 : CM (complete main)
Format settings, Endianness    : Big
Codec ID                       : ac-3
Duration                       : 2mn 2s
Bit rate mode                  : Constant
Bit rate                       : 384 Kbps
Channel(s)                     : 2 channels
Channel positions              : Front: L R
Sampling rate                  : 44.1 KHz
Bit depth                      : 16 bits
Compression mode               : Lossy
Stream size                    : 5.62 MiB (19%)
Title                          : @
Encoded date                   : UTC 2012-07-14 18:13:17
Tagged date                    : UTC 2012-07-14 18:13:17
[/color]
